<svg width="897" height="275" viewBox="0 0 897 275" fill="none" xmlns="http://www.w3.org/2000/svg">
<path d="M312.477 130.647L302.888 113.272C302.454 112.489 301.16 112.403 300.58 113.117L267.155 154.317L191.393 191.191L221.155 153.141C221.485 152.721 221.565 152.197 221.379 151.719L215.928 137.933C215.712 137.389 215.105 137.02 214.418 137.012L186.773 136.751L245.651 56.6059C245.931 56.2256 245.995 55.7593 245.831 55.3291L239.777 39.8164C239.093 38.0622 239.374 36.1443 240.544 34.5761L260.551 7.77229C261.171 6.9424 261.348 5.92931 261.038 4.98839L259.573 0.522477C259.377 -0.0770405 258.413 -0.190871 258.022 0.33928L158.852 136.487L109.867 135.976L137.054 101.626C137.525 101.026 137.618 100.28 137.301 99.6135L127.888 83.1737C127.515 82.3827 126.231 82.2717 125.667 82.9767L83.4931 135.774L0.776439 134.991C0.1994 134.985 -0.177512 135.493 0.0859909 135.918L12.6774 156.713C12.9976 157.237 13.6481 157.562 14.3519 157.557L66.0352 157.629L36.7696 194.347C36.3827 194.833 36.306 195.443 36.5628 195.982L47.223 213.998C47.3898 214.353 47.9702 214.4 48.2204 214.081L92.7491 157.629L143.375 157.737L73.4966 253.669C72.8596 254.535 72.7261 255.596 73.1297 256.55L83.7299 274.453C84.0068 275.105 85.0708 275.197 85.5044 274.606L171.33 157.773L191.106 157.801L162.901 196.312C162.521 196.831 162.514 197.478 162.884 198.002L176.083 216.685C176.62 217.442 177.807 217.667 178.684 217.176L248.249 178.101L224.504 207.473C223.714 208.452 223.94 209.776 225.034 210.531L238.193 219.638C239.31 220.41 240.985 220.218 241.809 219.224L312.047 134.741C313.048 133.534 313.211 131.977 312.477 130.647Z" fill="white"/>
<path d="M360.159 125.677L428.023 125.446L349.116 139.158L360.159 125.677ZM452.576 221.437C452.396 220.813 451.962 220.26 451.348 219.875L350.35 156.444L460.618 136.799C462.792 136.441 464.083 134.567 463.363 132.824L449.307 109.906C449.067 109.329 448.42 108.935 447.683 108.918L318.012 106.536C316.995 106.511 316.361 107.447 316.912 108.157L330.57 125.86L242.737 241.696C242.367 242.187 242.897 242.801 243.571 242.668L249.685 241.446C250.412 241.299 251.046 240.93 251.459 240.411L266.996 220.915C267.823 219.875 268.937 219.017 270.241 218.406L294.767 206.94C295.234 206.724 295.628 206.416 295.921 206.044L326.808 166.747L460.001 249.978C460.317 250.178 460.761 249.937 460.668 249.615L452.576 221.437Z" fill="white"/>
<path d="M463.258 167.269L489.985 140.51L481.56 164.086L463.258 167.269ZM516.486 120.942L503.804 107.494C502.82 106.454 500.939 106.418 499.898 107.42L415.04 189.163C414.253 189.924 414.417 191.087 415.404 191.669L428.216 199.691C429.166 200.254 430.477 200.104 431.214 199.352L443.832 186.718L475.986 179.671L460.85 222.02C460.583 222.762 460.74 223.564 461.277 224.199L474.932 240.325C475.563 241.078 476.957 240.886 477.274 240.009L517.807 126.707C518.517 124.72 518.024 122.571 516.486 120.942Z" fill="white"/>
<path d="M630.354 183.004L622.999 171.469C622.722 171.033 622.152 170.783 621.561 170.839L540.876 180.287C539.882 180.381 539.258 181.22 539.602 182.002L549.495 195.292C549.742 195.855 550.426 196.199 551.139 196.119L591.746 190.626L555.756 213.716L530.176 182.022L599.677 127.026L616.658 148.332C617.162 148.992 618.306 149.028 618.87 148.398C618.87 148.398 670.953 89.1259 670.997 88.8067C671.03 88.5291 670.326 81.2377 670.076 78.859C670.036 78.4815 669.469 78.3483 669.195 78.6453L622.102 122.969L605.458 97.8939C605.107 97.3804 604.27 97.2833 603.76 97.6941L503.689 178.641C502.495 179.604 502.308 181.147 503.245 182.294L548.975 238.236C549.798 239.243 551.483 239.446 552.61 238.671L629.643 185.958C630.697 185.239 630.991 184.004 630.354 183.004Z" fill="white"/>
<path d="M672.294 167.342L701.793 129.65L696.703 161.575L672.294 167.342ZM727.306 103.584L708.414 95.0771C707.56 94.6941 706.499 94.9106 705.956 95.5795L610.284 214.991C609.974 215.365 610.431 215.851 610.941 215.687L641.104 206.064C641.861 205.823 642.508 205.39 642.955 204.826L656.077 188.062L694.302 176.651L692.367 188.775C692.247 189.558 692.757 190.31 693.618 190.64L712.767 197.918C713.271 198.109 713.854 197.837 713.924 197.379L728.294 105.186C728.394 104.534 728 103.898 727.306 103.584Z" fill="white"/>
<path d="M887.709 84.6878L882.712 66.7715C882.329 65.3754 882.545 63.9126 883.333 62.6386L896.741 39.8067C896.965 39.4403 897.108 38.8297 896.898 38.2552L894.867 32.6901C894.75 32.4209 894.316 32.2155 894.016 32.6568L791.27 206.561L795.339 99.8869C795.359 99.329 794.959 98.8239 794.342 98.6185L780.846 94.1248C780.253 93.9278 779.582 94.147 779.309 94.6272L719.84 199.461C719.447 200.158 719.537 200.974 720.081 201.598L730.951 214.085C731.208 214.388 731.758 214.346 731.955 214.016L771.507 147.136L769.976 217.486L769.756 218.549C769.529 219.637 769.666 220.758 770.153 221.79L785.72 254.82C786 255.417 786.994 255.45 787.334 254.878L887.445 86.6752C887.809 86.059 887.905 85.354 887.709 84.6878Z" fill="white"/>
</svg>
