<svg version="1.1" id="Layer_1" xmlns="http://www.w3.org/2000/svg" xmlns:xlink="http://www.w3.org/1999/xlink" x="0px" y="0px"
	 width="100%" viewBox="0 0 897 275" enable-background="new 0 0 897 275" xml:space="preserve">
<path fill="#000000" opacity="1.000000" stroke="none" 
	d="
M898.000000,43.999989 
	C898.000000,121.301414 898.000000,198.602829 898.000000,276.000000 
	C628.309998,276.000000 358.620026,276.000000 88.176109,275.707306 
	C95.581749,264.146149 103.693886,252.842972 111.910416,241.616196 
	C130.921967,215.639465 149.964188,189.685028 169.068253,163.776321 
	C170.411148,161.955093 172.225067,159.438797 174.056854,159.218887 
	C179.237823,158.596848 184.542007,159.001190 190.591736,159.001190 
	C189.370026,161.050095 188.674423,162.458786 187.761719,163.708984 
	C180.417633,173.769012 173.062485,183.821320 165.640793,193.824097 
	C163.582321,196.598480 162.549561,198.826462 165.391068,202.098938 
	C169.294998,206.594971 172.708115,211.587982 175.795898,216.692093 
	C177.346054,219.254471 178.480698,219.350555 180.780472,218.051193 
	C193.368027,210.939194 206.004105,203.913040 218.630844,196.870529 
	C226.533157,192.463058 234.448364,188.078720 242.357788,183.684006 
	C242.676544,184.011139 242.995316,184.338272 243.314072,184.665405 
	C242.667725,185.822327 242.174728,187.104340 241.349823,188.115601 
	C236.503372,194.056793 231.511597,199.880325 226.712723,205.859055 
	C224.585190,208.509628 223.886276,211.028183 227.702698,213.309860 
	C232.244843,216.025452 236.474899,219.263046 241.797150,222.934647 
	C242.962799,221.334549 243.954803,219.793320 245.122238,218.398972 
	C253.930435,207.878662 262.826080,197.431229 271.592346,186.876251 
	C284.198853,171.697479 296.797119,156.510162 309.205292,141.169876 
	C311.489746,138.345627 315.746490,135.798798 313.578766,131.150955 
	C310.937073,125.486855 307.912415,119.990067 304.776550,114.581429 
	C304.364532,113.870766 301.564270,113.485786 301.135864,114.001465 
	C293.965363,122.632462 287.163452,131.571671 279.933105,140.150299 
	C273.434326,147.860947 267.700714,155.946823 257.476990,160.233673 
	C239.862366,167.619598 222.944168,176.667084 205.738876,185.027939 
	C202.756271,186.477341 199.799240,187.979416 195.967407,189.886719 
	C196.672546,187.945633 196.783081,186.971512 197.299820,186.319168 
	C205.279755,176.245544 213.399414,166.281464 221.297546,156.144608 
	C225.471191,150.787933 219.033585,146.884445 218.801193,142.017654 
	C218.734863,140.628403 216.704529,138.423355 215.296310,138.175659 
	C210.795029,137.383911 206.167664,137.220703 201.580063,137.034409 
	C197.531418,136.869995 193.470825,137.000000 188.906906,137.000000 
	C191.894104,133.061081 194.467377,129.754944 196.948929,126.381332 
	C210.653839,107.749916 224.393646,89.143707 237.997101,70.438377 
	C243.112381,63.404675 250.683228,56.834118 243.978546,46.735023 
	C243.261917,45.655602 242.611145,44.509460 242.099869,43.321106 
	C240.652283,39.956585 240.724609,37.037781 243.384995,33.922768 
	C247.471634,29.137753 251.274948,24.042961 254.633530,18.722948 
	C258.018433,13.361248 265.823151,9.369580 261.000000,1.000000 
	C473.333344,1.000000 685.666687,1.000000 898.000000,1.000000 
	C898.000000,11.750323 898.000000,22.410151 897.704346,33.824211 
	C894.650940,31.777273 893.351074,33.739071 891.970886,36.121151 
	C883.996277,49.884804 875.954651,63.609600 867.954956,77.358727 
	C854.302673,100.822922 840.688721,124.309494 827.012207,147.759521 
	C817.297302,164.416779 807.539062,181.049072 797.696594,197.631012 
	C796.730957,199.258011 795.038757,200.453766 793.683838,201.849701 
	C793.449768,187.008987 794.411804,172.851761 794.947388,158.678436 
	C795.510803,143.769547 795.632568,128.844345 796.035950,113.928673 
	C796.096924,111.672852 796.531250,109.408295 796.979919,107.185539 
	C798.085144,101.710434 796.950806,99.779068 791.466858,97.990105 
	C788.876160,97.144974 786.366394,95.840576 783.718018,95.466400 
	C782.248840,95.258842 779.783997,96.074745 779.106201,97.220795 
	C772.235168,108.839165 765.658264,120.631111 758.964539,132.354767 
	C746.368164,154.416656 733.718140,176.448090 721.220276,198.565598 
	C720.511719,199.819672 720.260803,202.305450 721.012695,203.246002 
	C724.572998,207.699219 728.556030,211.814514 732.670959,216.362457 
	C745.468750,194.806091 757.995667,173.706039 770.522583,152.605988 
	C771.148254,152.831802 771.773865,153.057617 772.399536,153.283447 
	C771.932983,161.623169 771.221863,169.958115 771.058655,178.303787 
	C770.827393,190.131287 771.984863,202.080017 770.640991,213.757370 
	C769.797058,221.090576 772.281677,226.547012 775.076599,232.427582 
	C778.994690,240.671371 783.001465,248.872986 787.216736,257.603027 
	C788.446350,255.978500 789.336304,255.012039 789.991089,253.906372 
	C799.819275,237.310638 809.560608,220.663300 819.436340,204.096024 
	C829.482300,187.243164 839.669434,170.474533 849.765320,153.651382 
	C860.684082,135.457092 871.722412,117.331650 882.377563,98.983910 
	C885.697998,93.266228 891.440186,87.947639 887.987305,80.077721 
	C887.341919,78.606873 886.560181,77.129822 886.282410,75.576752 
	C885.590820,71.709846 884.084961,67.555412 884.897766,63.967621 
	C885.812500,59.929798 888.722473,56.261757 891.115112,52.666107 
	C893.151733,49.605495 895.685913,46.875969 898.000000,43.999989 
M335.367310,107.000000 
	C329.249146,107.626488 322.829712,105.635178 316.470306,108.330460 
	C321.653503,114.939682 326.242126,120.790733 330.948578,126.792023 
	C301.504486,165.656723 272.094055,204.476990 242.488052,243.555405 
	C251.508957,245.433670 254.805786,239.117981 259.034027,234.077759 
	C263.277496,229.019440 267.163727,223.274887 272.428314,219.564758 
	C278.080261,215.581665 285.235260,213.782394 291.570557,210.694107 
	C294.286652,209.370102 297.131134,207.635025 298.987579,205.335983 
	C308.168335,193.966599 316.988403,182.306366 326.113525,170.890900 
	C326.830597,169.993851 329.377533,169.423721 330.286652,169.982559 
	C351.669891,183.127563 372.974365,196.401764 394.230896,209.751633 
	C414.408234,222.423706 434.500610,235.231064 454.672638,247.911697 
	C456.807465,249.253708 459.226471,250.143616 462.478394,251.707092 
	C459.731262,242.073090 457.208435,233.810745 455.069305,225.450226 
	C454.150848,221.860489 452.101288,219.775665 449.045166,217.943954 
	C439.663147,212.320755 430.436676,206.437943 421.153412,200.650146 
	C404.770050,190.435684 388.369232,180.249008 372.018005,169.983353 
	C365.872742,166.125214 359.845215,162.079544 353.170929,157.733139 
	C367.471497,155.038574 380.764862,152.474548 394.082611,150.044159 
	C403.794373,148.271835 413.547760,146.728363 423.265503,144.987717 
	C435.670532,142.765762 448.082947,140.571152 460.442017,138.112732 
	C465.605560,137.085617 466.176270,135.249161 463.539337,131.005356 
	C459.977264,125.272766 456.499054,119.488113 452.971375,113.734077 
	C451.115997,110.707802 448.926910,108.895958 444.847229,108.882523 
	C427.427277,108.825195 410.008942,108.323448 392.589661,108.002739 
	C373.837463,107.657478 355.084808,107.333351 335.367310,107.000000 
M552.552612,139.967270 
	C546.884094,144.628983 541.224182,149.301254 535.544983,153.949982 
	C526.208862,161.592026 516.961975,169.348129 507.479553,176.804550 
	C501.592682,181.433670 501.468781,180.636078 506.106720,186.427307 
	C519.971191,203.739227 534.336792,220.649277 548.249268,237.923615 
	C550.778625,241.064178 552.396240,241.205597 555.557861,239.034439 
	C577.087219,224.249542 598.745239,209.651993 620.332764,194.951401 
	C623.280396,192.944092 625.907288,190.422363 628.980408,188.656967 
	C631.293518,187.328186 633.418884,185.395569 631.593018,183.464981 
	C627.928040,179.589752 627.905823,172.643372 621.749695,171.203735 
	C619.389160,170.651718 616.651611,171.692871 614.088684,172.029602 
	C601.509094,173.682373 588.942383,175.440063 576.348145,176.971771 
	C564.267334,178.441025 552.158325,179.678543 538.664001,181.172668 
	C543.198608,187.179703 547.035828,192.284409 550.917725,197.354889 
	C551.164001,197.676605 551.787354,197.937576 552.185669,197.880539 
	C557.464539,197.124802 562.730469,196.278656 568.007812,195.511871 
	C574.494507,194.569397 580.989014,193.680206 587.480103,192.767990 
	C587.634277,193.174362 587.788513,193.580734 587.942688,193.987091 
	C577.514771,200.710007 567.086853,207.432907 556.870667,214.019302 
	C548.456482,203.580276 540.319946,193.485764 532.082703,183.266251 
	C533.306519,182.098587 534.427979,180.844116 535.728149,179.815582 
	C556.250366,163.581177 576.755676,147.324295 597.442993,131.302643 
	C598.580078,130.422043 602.144165,130.790680 603.097290,131.877213 
	C607.686401,137.108536 611.818359,142.747391 616.001282,148.325058 
	C617.579041,150.428879 619.029419,150.634125 620.809692,148.715927 
	C625.414185,143.754852 630.153137,138.912109 634.611084,133.822952 
	C645.294800,121.626495 655.476135,108.963440 666.615601,97.204216 
	C671.935791,91.587990 672.700134,85.917572 671.464233,77.943268 
	C662.952576,85.783730 655.089355,92.938522 647.327942,100.202126 
	C640.196655,106.876030 633.153442,113.644638 626.118469,120.420357 
	C624.012878,122.448357 622.703979,122.831116 620.884521,119.781960 
	C616.841003,113.005585 612.414307,106.447868 607.882263,99.984337 
	C607.241028,99.069778 604.508911,98.383408 603.801636,98.938454 
	C593.039185,107.384056 582.478760,116.086342 571.815857,124.659798 
	C565.610291,129.649277 559.306396,134.516403 552.552612,139.967270 
M693.997375,184.312195 
	C693.558472,186.675995 693.119568,189.039780 692.680908,191.402557 
	C699.003601,193.793747 704.864929,195.881912 710.614929,198.241272 
	C713.339966,199.359421 715.417480,199.782516 715.991150,196.095230 
	C718.010315,183.118561 719.977173,170.133743 722.003418,157.158203 
	C724.303528,142.428818 726.542358,127.688644 729.011169,112.987305 
	C730.393250,104.757240 730.564880,104.820038 723.083740,101.534035 
	C719.263123,99.855858 715.552917,97.918266 711.696045,96.333588 
	C709.418152,95.397667 707.594910,95.021996 705.432678,97.841354 
	C696.909058,108.955498 687.836731,119.648079 679.000122,130.523148 
	C670.372437,141.140991 661.737305,151.753342 653.190186,162.435944 
	C643.028931,175.136063 632.952515,187.904053 622.850952,200.651886 
	C618.755859,205.819748 614.691833,211.012161 610.240173,216.667877 
	C611.747375,216.835175 612.449524,217.119720 613.005981,216.943710 
	C620.642456,214.528381 628.161743,211.666443 635.909790,209.702972 
	C642.551453,208.019852 646.692871,203.966858 650.250122,198.502029 
	C652.496460,195.051147 655.013123,190.548584 658.423706,189.307388 
	C669.840149,185.152664 681.713257,182.252914 693.999878,178.702576 
	C693.999878,180.534851 693.999878,181.975906 693.997375,184.312195 
M519.002136,123.648170 
	C518.906006,123.165459 518.974121,122.530449 518.689026,122.222893 
	C514.323792,117.513458 510.069122,112.678413 505.379120,108.312691 
	C504.445801,107.443939 501.175354,107.682121 500.056702,108.650551 
	C494.067413,113.835678 488.368378,119.361992 482.662354,124.867134 
	C471.083954,136.037842 459.569427,147.274704 448.021027,158.476517 
	C437.668671,168.518219 427.348785,178.594162 416.915405,188.551071 
	C414.575867,190.783813 414.140717,192.247971 417.368225,193.949570 
	C420.206543,195.445984 422.938660,197.192749 425.544556,199.069305 
	C429.127838,201.649643 432.041382,201.818939 435.346405,198.276505 
	C440.400513,192.859329 445.077271,186.965210 453.510529,186.026352 
	C460.617828,185.235092 467.592560,183.253128 476.025330,181.508774 
	C470.741547,196.543106 465.884186,210.364075 460.961151,224.371857 
	C466.712860,230.208084 470.521667,238.089554 478.184357,242.665848 
	C485.122528,223.251801 491.699310,204.708786 498.377869,186.202499 
	C504.518280,169.187271 510.856964,152.243011 516.895020,135.191940 
	C518.104492,131.776611 518.352600,128.020859 519.002136,123.648170 
z"/>
<path fill="#000000" opacity="1.000000" stroke="none" 
	d="
M1.000000,136.000000 
	C1.000000,91.050262 1.000000,46.100525 1.000000,1.000000 
	C86.354172,1.000000 171.708420,1.000000 257.529938,1.362176 
	C257.116272,2.872860 256.202515,3.997813 255.359390,5.173428 
	C244.437592,20.402472 233.599899,35.692459 222.595291,50.861366 
	C202.938797,77.956139 183.224869,105.009674 163.387939,131.972290 
	C161.836700,134.080765 159.176041,136.714584 156.963943,136.778381 
	C142.171722,137.204926 127.361282,136.999954 112.288712,136.999954 
	C112.683319,135.926010 112.803795,134.894409 113.354149,134.207031 
	C120.374191,125.439117 127.713089,116.908821 134.339020,107.855614 
	C135.973129,105.622894 140.559036,104.088013 138.368454,99.887497 
	C135.624115,94.625145 132.740631,89.425987 129.674789,84.345848 
	C128.628326,82.611847 127.537621,82.172508 125.672714,84.533134 
	C112.853981,100.759277 99.605721,116.646927 86.851433,132.922287 
	C84.902908,135.408752 83.261292,136.051392 80.467308,136.043671 
	C53.978367,135.970398 27.489143,136.000000 1.000000,136.000000 
z"/>
<path fill="#FFFFFF" opacity="1.000000" stroke="none" 
	d="
M1.000000,136.399994 
	C27.489143,136.000000 53.978367,135.970398 80.467308,136.043671 
	C83.261292,136.051392 84.902908,135.408752 86.851433,132.922287 
	C99.605721,116.646927 112.853981,100.759277 125.672714,84.533134 
	C127.537621,82.172508 128.628326,82.611847 129.674789,84.345848 
	C132.740631,89.425987 135.624115,94.625145 138.368454,99.887497 
	C140.559036,104.088013 135.973129,105.622894 134.339020,107.855614 
	C127.713089,116.908821 120.374191,125.439117 113.354149,134.207031 
	C112.803795,134.894409 112.683319,135.926010 112.288712,136.999954 
	C127.361282,136.999954 142.171722,137.204926 156.963943,136.778381 
	C159.176041,136.714584 161.836700,134.080765 163.387939,131.972290 
	C183.224869,105.009674 202.938797,77.956139 222.595291,50.861366 
	C233.599899,35.692459 244.437592,20.402472 255.359390,5.173428 
	C256.202515,3.997813 257.116272,2.872860 257.998596,1.362176 
	C258.750000,1.000000 259.500000,1.000000 260.625000,1.000000 
	C265.823151,9.369580 258.018433,13.361248 254.633530,18.722948 
	C251.274948,24.042961 247.471634,29.137753 243.384995,33.922768 
	C240.724609,37.037781 240.652283,39.956585 242.099869,43.321106 
	C242.611145,44.509460 243.261917,45.655602 243.978546,46.735023 
	C250.683228,56.834118 243.112381,63.404675 237.997101,70.438377 
	C224.393646,89.143707 210.653839,107.749916 196.948929,126.381332 
	C194.467377,129.754944 191.894104,133.061081 188.906906,137.000000 
	C193.470825,137.000000 197.531418,136.869995 201.580063,137.034409 
	C206.167664,137.220703 210.795029,137.383911 215.296310,138.175659 
	C216.704529,138.423355 218.734863,140.628403 218.801193,142.017654 
	C219.033585,146.884445 225.471191,150.787933 221.297546,156.144608 
	C213.399414,166.281464 205.279755,176.245544 197.299820,186.319168 
	C196.783081,186.971512 196.672546,187.945633 195.967407,189.886719 
	C199.799240,187.979416 202.756271,186.477341 205.738876,185.027939 
	C222.944168,176.667084 239.862366,167.619598 257.476990,160.233673 
	C267.700714,155.946823 273.434326,147.860947 279.933105,140.150299 
	C287.163452,131.571671 293.965363,122.632462 301.135864,114.001465 
	C301.564270,113.485786 304.364532,113.870766 304.776550,114.581429 
	C307.912415,119.990067 310.937073,125.486855 313.578766,131.150955 
	C315.746490,135.798798 311.489746,138.345627 309.205292,141.169876 
	C296.797119,156.510162 284.198853,171.697479 271.592346,186.876251 
	C262.826080,197.431229 253.930435,207.878662 245.122238,218.398972 
	C243.954803,219.793320 242.962799,221.334549 241.797150,222.934647 
	C236.474899,219.263046 232.244843,216.025452 227.702698,213.309860 
	C223.886276,211.028183 224.585190,208.509628 226.712723,205.859055 
	C231.511597,199.880325 236.503372,194.056793 241.349823,188.115601 
	C242.174728,187.104340 242.667725,185.822327 243.314072,184.665405 
	C242.995316,184.338272 242.676544,184.011139 242.357788,183.684006 
	C234.448364,188.078720 226.533157,192.463058 218.630844,196.870529 
	C206.004105,203.913040 193.368027,210.939194 180.780472,218.051193 
	C178.480698,219.350555 177.346054,219.254471 175.795898,216.692093 
	C172.708115,211.587982 169.294998,206.594971 165.391068,202.098938 
	C162.549561,198.826462 163.582321,196.598480 165.640793,193.824097 
	C173.062485,183.821320 180.417633,173.769012 187.761719,163.708984 
	C188.674423,162.458786 189.370026,161.050095 190.591736,159.001190 
	C184.542007,159.001190 179.237823,158.596848 174.056854,159.218887 
	C172.225067,159.438797 170.411148,161.955093 169.068253,163.776321 
	C149.964188,189.685028 130.921967,215.639465 111.910416,241.616196 
	C103.693886,252.842972 95.581749,264.146149 87.711098,275.707306 
	C86.933327,276.000000 85.866661,276.000000 84.398483,275.630798 
	C80.337975,269.037292 76.678978,262.812958 72.792717,256.202057 
	C96.063606,224.213699 119.386635,192.153671 143.505280,159.000000 
	C129.193756,159.000000 116.537430,159.662277 103.993835,158.758987 
	C96.094917,158.190170 91.613846,161.476028 87.283928,167.146042 
	C74.714958,183.605026 61.869991,199.853271 48.749630,216.676147 
	C44.733437,210.031342 40.936073,203.915756 37.389610,197.657974 
	C36.971600,196.920395 37.632687,195.179382 38.301926,194.283157 
	C41.798725,189.600372 45.448040,185.030975 49.066284,180.439468 
	C54.608498,173.406494 60.168652,166.387665 66.007973,159.000000 
	C50.967072,159.000000 36.612331,158.532455 22.310986,159.203217 
	C15.471541,159.524002 11.825798,157.091583 8.910378,151.360687 
	C6.837873,147.286713 3.675791,143.767059 1.000000,140.000000 
	C1.000000,138.933334 1.000000,137.866653 1.000000,136.399994 
z"/>
<path fill="#000000" opacity="1.000000" stroke="none" 
	d="
M1.000000,140.468658 
	C3.675791,143.767059 6.837873,147.286713 8.910378,151.360687 
	C11.825798,157.091583 15.471541,159.524002 22.310986,159.203217 
	C36.612331,158.532455 50.967072,159.000000 66.007973,159.000000 
	C60.168652,166.387665 54.608498,173.406494 49.066284,180.439468 
	C45.448040,185.030975 41.798725,189.600372 38.301926,194.283157 
	C37.632687,195.179382 36.971600,196.920395 37.389610,197.657974 
	C40.936073,203.915756 44.733437,210.031342 48.749630,216.676147 
	C61.869991,199.853271 74.714958,183.605026 87.283928,167.146042 
	C91.613846,161.476028 96.094917,158.190170 103.993835,158.758987 
	C116.537430,159.662277 129.193756,159.000000 143.505280,159.000000 
	C119.386635,192.153671 96.063606,224.213699 72.792717,256.202057 
	C76.678978,262.812958 80.337975,269.037292 83.998489,275.630798 
	C56.388706,276.000000 28.777411,276.000000 1.000000,276.000000 
	C1.000000,230.979248 1.000000,185.958282 1.000000,140.468658 
z"/>
<path fill="#FFFFFF" opacity="1.000000" stroke="none" 
	d="
M898.000000,43.545879 
	C895.685913,46.875969 893.151733,49.605495 891.115112,52.666107 
	C888.722473,56.261757 885.812500,59.929798 884.897766,63.967621 
	C884.084961,67.555412 885.590820,71.709846 886.282410,75.576752 
	C886.560181,77.129822 887.341919,78.606873 887.987305,80.077721 
	C891.440186,87.947639 885.697998,93.266228 882.377563,98.983910 
	C871.722412,117.331650 860.684082,135.457092 849.765320,153.651382 
	C839.669434,170.474533 829.482300,187.243164 819.436340,204.096024 
	C809.560608,220.663300 799.819275,237.310638 789.991089,253.906372 
	C789.336304,255.012039 788.446350,255.978500 787.216736,257.603027 
	C783.001465,248.872986 778.994690,240.671371 775.076599,232.427582 
	C772.281677,226.547012 769.797058,221.090576 770.640991,213.757370 
	C771.984863,202.080017 770.827393,190.131287 771.058655,178.303787 
	C771.221863,169.958115 771.932983,161.623169 772.399536,153.283447 
	C771.773865,153.057617 771.148254,152.831802 770.522583,152.605988 
	C757.995667,173.706039 745.468750,194.806091 732.670959,216.362457 
	C728.556030,211.814514 724.572998,207.699219 721.012695,203.246002 
	C720.260803,202.305450 720.511719,199.819672 721.220276,198.565598 
	C733.718140,176.448090 746.368164,154.416656 758.964539,132.354767 
	C765.658264,120.631111 772.235168,108.839165 779.106201,97.220795 
	C779.783997,96.074745 782.248840,95.258842 783.718018,95.466400 
	C786.366394,95.840576 788.876160,97.144974 791.466858,97.990105 
	C796.950806,99.779068 798.085144,101.710434 796.979919,107.185539 
	C796.531250,109.408295 796.096924,111.672852 796.035950,113.928673 
	C795.632568,128.844345 795.510803,143.769547 794.947388,158.678436 
	C794.411804,172.851761 793.449768,187.008987 793.683838,201.849701 
	C795.038757,200.453766 796.730957,199.258011 797.696594,197.631012 
	C807.539062,181.049072 817.297302,164.416779 827.012207,147.759521 
	C840.688721,124.309494 854.302673,100.822922 867.954956,77.358727 
	C875.954651,63.609600 883.996277,49.884804 891.970886,36.121151 
	C893.351074,33.739071 894.650940,31.777273 897.704346,34.289223 
	C898.000000,37.030594 898.000000,40.061188 898.000000,43.545879 
z"/>
<path fill="#FFFFFF" opacity="1.000000" stroke="none" 
	d="
M335.849854,107.000000 
	C355.084808,107.333351 373.837463,107.657478 392.589661,108.002739 
	C410.008942,108.323448 427.427277,108.825195 444.847229,108.882523 
	C448.926910,108.895958 451.115997,110.707802 452.971375,113.734077 
	C456.499054,119.488113 459.977264,125.272766 463.539337,131.005356 
	C466.176270,135.249161 465.605560,137.085617 460.442017,138.112732 
	C448.082947,140.571152 435.670532,142.765762 423.265503,144.987717 
	C413.547760,146.728363 403.794373,148.271835 394.082611,150.044159 
	C380.764862,152.474548 367.471497,155.038574 353.170929,157.733139 
	C359.845215,162.079544 365.872742,166.125214 372.018005,169.983353 
	C388.369232,180.249008 404.770050,190.435684 421.153412,200.650146 
	C430.436676,206.437943 439.663147,212.320755 449.045166,217.943954 
	C452.101288,219.775665 454.150848,221.860489 455.069305,225.450226 
	C457.208435,233.810745 459.731262,242.073090 462.478394,251.707092 
	C459.226471,250.143616 456.807465,249.253708 454.672638,247.911697 
	C434.500610,235.231064 414.408234,222.423706 394.230896,209.751633 
	C372.974365,196.401764 351.669891,183.127563 330.286652,169.982559 
	C329.377533,169.423721 326.830597,169.993851 326.113525,170.890900 
	C316.988403,182.306366 308.168335,193.966599 298.987579,205.335983 
	C297.131134,207.635025 294.286652,209.370102 291.570557,210.694107 
	C285.235260,213.782394 278.080261,215.581665 272.428314,219.564758 
	C267.163727,223.274887 263.277496,229.019440 259.034027,234.077759 
	C254.805786,239.117981 251.508957,245.433670 242.488052,243.555405 
	C272.094055,204.476990 301.504486,165.656723 330.948578,126.792023 
	C326.242126,120.790733 321.653503,114.939682 316.470306,108.330460 
	C322.829712,105.635178 329.249146,107.626488 335.849854,107.000000 
M405.541992,130.000198 
	C408.381714,129.500992 411.221436,129.001785 415.360718,128.274124 
	C413.566986,127.402977 413.177399,127.048790 412.787048,127.047951 
	C396.313812,127.012375 379.840515,126.994957 363.367340,127.037018 
	C362.476318,127.039291 361.257233,127.297249 360.750671,127.903725 
	C357.826660,131.404465 355.071198,135.045944 352.001892,138.967789 
	C353.798370,138.967789 354.990967,139.136688 356.120117,138.940369 
	C363.422424,137.670715 370.714539,136.341293 378.002930,134.993195 
	C386.890289,133.349335 395.770721,131.667892 405.541992,130.000198 
z"/>
<path fill="#FFFFFF" opacity="1.000000" stroke="none" 
	d="
M552.799683,139.702927 
	C559.306396,134.516403 565.610291,129.649277 571.815857,124.659798 
	C582.478760,116.086342 593.039185,107.384056 603.801636,98.938454 
	C604.508911,98.383408 607.241028,99.069778 607.882263,99.984337 
	C612.414307,106.447868 616.841003,113.005585 620.884521,119.781960 
	C622.703979,122.831116 624.012878,122.448357 626.118469,120.420357 
	C633.153442,113.644638 640.196655,106.876030 647.327942,100.202126 
	C655.089355,92.938522 662.952576,85.783730 671.464233,77.943268 
	C672.700134,85.917572 671.935791,91.587990 666.615601,97.204216 
	C655.476135,108.963440 645.294800,121.626495 634.611084,133.822952 
	C630.153137,138.912109 625.414185,143.754852 620.809692,148.715927 
	C619.029419,150.634125 617.579041,150.428879 616.001282,148.325058 
	C611.818359,142.747391 607.686401,137.108536 603.097290,131.877213 
	C602.144165,130.790680 598.580078,130.422043 597.442993,131.302643 
	C576.755676,147.324295 556.250366,163.581177 535.728149,179.815582 
	C534.427979,180.844116 533.306519,182.098587 532.082703,183.266251 
	C540.319946,193.485764 548.456482,203.580276 556.870667,214.019302 
	C567.086853,207.432907 577.514771,200.710007 587.942688,193.987091 
	C587.788513,193.580734 587.634277,193.174362 587.480103,192.767990 
	C580.989014,193.680206 574.494507,194.569397 568.007812,195.511871 
	C562.730469,196.278656 557.464539,197.124802 552.185669,197.880539 
	C551.787354,197.937576 551.164001,197.676605 550.917725,197.354889 
	C547.035828,192.284409 543.198608,187.179703 538.664001,181.172668 
	C552.158325,179.678543 564.267334,178.441025 576.348145,176.971771 
	C588.942383,175.440063 601.509094,173.682373 614.088684,172.029602 
	C616.651611,171.692871 619.389160,170.651718 621.749695,171.203735 
	C627.905823,172.643372 627.928040,179.589752 631.593018,183.464981 
	C633.418884,185.395569 631.293518,187.328186 628.980408,188.656967 
	C625.907288,190.422363 623.280396,192.944092 620.332764,194.951401 
	C598.745239,209.651993 577.087219,224.249542 555.557861,239.034439 
	C552.396240,241.205597 550.778625,241.064178 548.249268,237.923615 
	C534.336792,220.649277 519.971191,203.739227 506.106720,186.427307 
	C501.468781,180.636078 501.592682,181.433670 507.479553,176.804550 
	C516.961975,169.348129 526.208862,161.592026 535.544983,153.949982 
	C541.224182,149.301254 546.884094,144.628983 552.799683,139.702927 
z"/>
<path fill="#FFFFFF" opacity="1.000000" stroke="none" 
	d="
M693.998657,183.864578 
	C693.999878,181.975906 693.999878,180.534851 693.999878,178.702576 
	C681.713257,182.252914 669.840149,185.152664 658.423706,189.307388 
	C655.013123,190.548584 652.496460,195.051147 650.250122,198.502029 
	C646.692871,203.966858 642.551453,208.019852 635.909790,209.702972 
	C628.161743,211.666443 620.642456,214.528381 613.005981,216.943710 
	C612.449524,217.119720 611.747375,216.835175 610.240173,216.667877 
	C614.691833,211.012161 618.755859,205.819748 622.850952,200.651886 
	C632.952515,187.904053 643.028931,175.136063 653.190186,162.435944 
	C661.737305,151.753342 670.372437,141.140991 679.000122,130.523148 
	C687.836731,119.648079 696.909058,108.955498 705.432678,97.841354 
	C707.594910,95.021996 709.418152,95.397667 711.696045,96.333588 
	C715.552917,97.918266 719.263123,99.855858 723.083740,101.534035 
	C730.564880,104.820038 730.393250,104.757240 729.011169,112.987305 
	C726.542358,127.688644 724.303528,142.428818 722.003418,157.158203 
	C719.977173,170.133743 718.010315,183.118561 715.991150,196.095230 
	C715.417480,199.782516 713.339966,199.359421 710.614929,198.241272 
	C704.864929,195.881912 699.003601,193.793747 692.680908,191.402557 
	C693.119568,189.039780 693.558472,186.675995 693.998657,183.864578 
M697.713196,160.814911 
	C698.871643,152.620926 700.030151,144.426956 701.188599,136.232971 
	C700.670105,136.033249 700.151672,135.833527 699.633179,135.633804 
	C691.495239,145.985611 683.357361,156.337433 674.700439,167.349457 
	C677.345642,166.787430 679.226807,166.488449 681.050110,165.981354 
	C686.404480,164.492172 691.735779,162.920288 697.713196,160.814911 
z"/>
<path fill="#FFFFFF" opacity="1.000000" stroke="none" 
	d="
M519.023071,124.035118 
	C518.352600,128.020859 518.104492,131.776611 516.895020,135.191940 
	C510.856964,152.243011 504.518280,169.187271 498.377869,186.202499 
	C491.699310,204.708786 485.122528,223.251801 478.184357,242.665848 
	C470.521667,238.089554 466.712860,230.208084 460.961151,224.371857 
	C465.884186,210.364075 470.741547,196.543106 476.025330,181.508774 
	C467.592560,183.253128 460.617828,185.235092 453.510529,186.026352 
	C445.077271,186.965210 440.400513,192.859329 435.346405,198.276505 
	C432.041382,201.818939 429.127838,201.649643 425.544556,199.069305 
	C422.938660,197.192749 420.206543,195.445984 417.368225,193.949570 
	C414.140717,192.247971 414.575867,190.783813 416.915405,188.551071 
	C427.348785,178.594162 437.668671,168.518219 448.021027,158.476517 
	C459.569427,147.274704 471.083954,136.037842 482.662354,124.867134 
	C488.368378,119.361992 494.067413,113.835678 500.056702,108.650551 
	C501.175354,107.682121 504.445801,107.443939 505.379120,108.312691 
	C510.069122,112.678413 514.323792,117.513458 518.689026,122.222893 
	C518.974121,122.530449 518.906006,123.165459 519.023071,124.035118 
M469.052979,166.999649 
	C477.369232,166.472351 484.633789,164.635269 485.956909,154.504898 
	C486.276794,152.055801 487.386353,149.709839 488.132812,147.316452 
	C487.744965,147.147141 487.357086,146.977829 486.969238,146.808502 
	C480.431915,153.279892 473.894592,159.751282 467.357269,166.222656 
	C467.661591,166.480148 467.965912,166.737625 469.052979,166.999649 
z"/>
<path fill="#000000" opacity="1.000000" stroke="none" 
	d="
M405.098083,130.001450 
	C395.770721,131.667892 386.890289,133.349335 378.002930,134.993195 
	C370.714539,136.341293 363.422424,137.670715 356.120117,138.940369 
	C354.990967,139.136688 353.798370,138.967789 352.001892,138.967789 
	C355.071198,135.045944 357.826660,131.404465 360.750671,127.903725 
	C361.257233,127.297249 362.476318,127.039291 363.367340,127.037018 
	C379.840515,126.994957 396.313812,127.012375 412.787048,127.047951 
	C413.177399,127.048790 413.566986,127.402977 415.360718,128.274124 
	C411.221436,129.001785 408.381714,129.500992 405.098083,130.001450 
z"/>
<path fill="#000000" opacity="1.000000" stroke="none" 
	d="
M697.394653,161.097839 
	C691.735779,162.920288 686.404480,164.492172 681.050110,165.981354 
	C679.226807,166.488449 677.345642,166.787430 674.700439,167.349457 
	C683.357361,156.337433 691.495239,145.985611 699.633179,135.633804 
	C700.151672,135.833527 700.670105,136.033249 701.188599,136.232971 
	C700.030151,144.426956 698.871643,152.620926 697.394653,161.097839 
z"/>
<path fill="#000000" opacity="1.000000" stroke="none" 
	d="
M468.661591,166.997375 
	C467.965912,166.737625 467.661591,166.480148 467.357269,166.222656 
	C473.894592,159.751282 480.431915,153.279892 486.969238,146.808502 
	C487.357086,146.977829 487.744965,147.147141 488.132812,147.316452 
	C487.386353,149.709839 486.276794,152.055801 485.956909,154.504898 
	C484.633789,164.635269 477.369232,166.472351 468.661591,166.997375 
z"/>
</svg>