<?xml version="1.0" encoding="utf-8"?>
<!-- Generator: Adobe Illustrator 28.2.0, SVG Export Plug-In . SVG Version: 6.00 Build 0)  -->
<svg version="1.1" id="Layer_1" xmlns="http://www.w3.org/2000/svg" xmlns:xlink="http://www.w3.org/1999/xlink" x="0px" y="0px"
	 viewBox="0 0 317 274" style="enable-background:new 0 0 317 274;" xml:space="preserve">
<style type="text/css">
	.st0{fill:#FFFFFF;}
</style>
<path class="st0" d="M128.3,134.9l23.2-0.1l-27,4.7L128.3,134.9z M159.9,167.9c-0.1-0.2-0.2-0.4-0.4-0.5L125,145.5l37.7-6.8
	c0.7-0.1,1.2-0.8,0.9-1.4l-4.8-7.9c-0.1-0.2-0.3-0.3-0.6-0.3l-44.4-0.8c-0.3,0-0.6,0.3-0.4,0.6l4.7,6.1l-30.1,39.9
	c-0.1,0.2,0.1,0.4,0.3,0.3l2.1-0.4c0.2-0.1,0.5-0.2,0.6-0.4l5.3-6.7c0.3-0.4,0.7-0.7,1.1-0.9l8.4-4c0.2-0.1,0.3-0.2,0.4-0.3
	l10.6-13.5l45.6,28.7c0.1,0.1,0.3,0,0.2-0.1L159.9,167.9z"/>
<path class="st0" d="M163.6,149.3l9.1-9.2l-2.9,8.1L163.6,149.3z M181.8,133.3l-4.3-4.6c-0.3-0.4-1-0.4-1.3,0l-29,28.2
	c-0.3,0.3-0.2,0.7,0.1,0.9l4.4,2.8c0.3,0.2,0.8,0.1,1-0.1l4.3-4.4l11-2.4l-5.2,14.6c-0.1,0.3,0,0.5,0.1,0.8l4.7,5.6
	c0.2,0.3,0.7,0.2,0.8-0.1l13.9-39.1C182.5,134.6,182.3,133.8,181.8,133.3z"/>
<path class="st0" d="M220.8,154.7l-2.5-4c-0.1-0.2-0.3-0.2-0.5-0.2l-27.6,3.3c-0.3,0-0.6,0.3-0.4,0.6l3.4,4.6
	c0.1,0.2,0.3,0.3,0.6,0.3l13.9-1.9l-12.3,8l-8.8-10.9l23.8-19l5.8,7.3c0.2,0.2,0.6,0.2,0.8,0c0,0,17.8-20.4,17.8-20.5
	c0-0.1-0.2-2.6-0.3-3.4c0-0.1-0.2-0.2-0.3-0.1L217.9,134l-5.7-8.6c-0.1-0.2-0.4-0.2-0.6-0.1l-34.2,27.9c-0.4,0.3-0.5,0.9-0.2,1.3
	l15.6,19.3c0.3,0.3,0.9,0.4,1.2,0.2l26.4-18.2C220.9,155.5,221,155,220.8,154.7z"/>
<path class="st0" d="M235.1,149.3l10.1-13l-1.7,11L235.1,149.3z M253.9,127.3l-6.5-2.9c-0.3-0.1-0.7-0.1-0.8,0.2l-32.7,41.2
	c-0.1,0.1,0,0.3,0.2,0.2l10.3-3.3c0.3-0.1,0.5-0.2,0.6-0.4l4.5-5.8l13.1-3.9l-0.7,4.2c0,0.3,0.1,0.5,0.4,0.6l6.6,2.5
	c0.2,0.1,0.4,0,0.4-0.2l4.9-31.8C254.3,127.6,254.2,127.4,253.9,127.3z"/>
<path class="st0" d="M112,136.6l-3.3-6c-0.1-0.3-0.6-0.3-0.8-0.1l-11.4,14.2l-25.9,12.7l10.2-13.1c0.1-0.1,0.1-0.3,0.1-0.5l-1.9-4.8
	c-0.1-0.2-0.3-0.3-0.5-0.3l-9.5-0.1l20.1-27.6c0.1-0.1,0.1-0.3,0.1-0.4l-2.1-5.3c-0.2-0.6-0.1-1.3,0.3-1.8l6.8-9.2
	c0.2-0.3,0.3-0.6,0.2-1l-0.5-1.5c-0.1-0.2-0.4-0.2-0.5-0.1l-33.9,46.9l-16.8-0.2l9.3-11.8c0.2-0.2,0.2-0.5,0.1-0.7l-3.2-5.7
	c-0.1-0.3-0.6-0.3-0.8-0.1l-14.4,18.2l-28.3-0.3c-0.2,0-0.3,0.2-0.2,0.3l4.3,7.2c0.1,0.2,0.3,0.3,0.6,0.3l17.7,0l-10,12.7
	c-0.1,0.2-0.2,0.4-0.1,0.6l3.6,6.2c0.1,0.1,0.3,0.1,0.3,0l15.2-19.5l17.3,0L30.2,179c-0.2,0.3-0.3,0.7-0.1,1l3.6,6.2
	c0.1,0.2,0.5,0.3,0.6,0.1L63.7,146l6.8,0l-9.7,13.3c-0.1,0.2-0.1,0.4,0,0.6l4.5,6.4c0.2,0.3,0.6,0.3,0.9,0.2L90,153l-8.1,10.1
	c-0.3,0.3-0.2,0.8,0.2,1.1l4.5,3.1c0.4,0.3,1,0.2,1.2-0.1l24-29.1C112.2,137.6,112.2,137.1,112,136.6z"/>
<path class="st0" d="M308.8,120.8l-1.7-6.2c-0.1-0.5-0.1-1,0.2-1.4l4.6-7.9c0.1-0.1,0.1-0.3,0.1-0.5l-0.7-1.9c0-0.1-0.2-0.2-0.3,0
	l-35.2,60l1.4-36.8c0-0.2-0.1-0.4-0.3-0.4l-4.6-1.5c-0.2-0.1-0.4,0-0.5,0.2l-20.3,36.1c-0.1,0.2-0.1,0.5,0.1,0.7l3.7,4.3
	c0.1,0.1,0.3,0.1,0.3,0l13.5-23.1l-0.5,24.3l-0.1,0.4c-0.1,0.4,0,0.8,0.1,1.1l5.3,11.4c0.1,0.2,0.4,0.2,0.6,0l34.3-58
	C308.9,121.3,308.9,121,308.8,120.8z"/>
</svg>
